<svg width="192" height="192" viewBox="0 0 192 192" fill="none" xmlns="http://www.w3.org/2000/svg">
<g clip-path="url(#clip0_2004_751)">
<path opacity="0.1" d="M42.5296 24.4048L37.4189 21.3065C26.5372 14.7117 13 23.0449 13 36.3373V155.664C13 168.956 26.5372 177.288 37.4189 170.694L42.5296 167.595L131.118 113.899C144.175 105.985 144.175 86.0148 131.118 78.1012L42.5296 24.4048Z" fill="#6C22A6"/>
<path d="M79.6189 24.4048L74.5082 21.3065C63.6266 14.7117 50.0894 23.0449 50.0894 36.3373V155.664C50.0894 168.956 63.6266 177.288 74.5082 170.694L79.6189 167.595L168.208 113.899C181.264 105.985 181.264 86.0148 168.208 78.1012L79.6189 24.4048Z" fill="#6C22A6" stroke="#6C22A6" stroke-width="2.66667" stroke-linecap="round" stroke-linejoin="round"/>
<path d="M137.005 94.024C137.005 99.3147 136.109 104.008 134.317 108.104C132.525 112.115 130.093 115.528 127.021 118.344C123.949 121.075 120.407 123.165 116.397 124.616C112.471 126.067 108.333 126.792 103.981 126.792C99.6285 126.792 95.4472 126.067 91.4365 124.616C87.5112 123.165 84.0125 121.075 80.9405 118.344C77.8685 115.528 75.4365 112.115 73.6445 108.104C71.8525 104.008 70.9565 99.3147 70.9565 94.024V92.488C70.9565 87.2827 71.8525 82.6747 73.6445 78.664C75.4365 74.568 77.8685 71.112 80.9405 68.296C84.0125 65.48 87.5112 63.3467 91.4365 61.896C95.4472 60.4453 99.6285 59.72 103.981 59.72C108.333 59.72 112.471 60.4453 116.397 61.896C120.407 63.3467 123.949 65.48 127.021 68.296C130.093 71.112 132.525 74.568 134.317 78.664C136.109 82.6747 137.005 87.2827 137.005 92.488V94.024ZM103.981 111.432C106.285 111.432 108.461 111.048 110.509 110.28C112.557 109.512 114.349 108.403 115.885 106.952C117.421 105.501 118.615 103.752 119.469 101.704C120.407 99.5707 120.877 97.1813 120.877 94.536V91.976C120.877 89.3307 120.407 86.984 119.469 84.936C118.615 82.8027 117.421 81.0107 115.885 79.56C114.349 78.1093 112.557 77 110.509 76.232C108.461 75.464 106.285 75.08 103.981 75.08C101.677 75.08 99.5005 75.464 97.4525 76.232C95.4045 77 93.6125 78.1093 92.0765 79.56C90.5405 81.0107 89.3032 82.8027 88.3645 84.936C87.5112 86.984 87.0845 89.3307 87.0845 91.976V94.536C87.0845 97.1813 87.5112 99.5707 88.3645 101.704C89.3032 103.752 90.5405 105.501 92.0765 106.952C93.6125 108.403 95.4045 109.512 97.4525 110.28C99.5005 111.048 101.677 111.432 103.981 111.432Z" fill="white"/>
<path d="M137.005 94.024C137.005 99.3147 136.109 104.008 134.317 108.104C132.525 112.115 130.093 115.528 127.021 118.344C123.949 121.075 120.407 123.165 116.397 124.616C112.471 126.067 108.333 126.792 103.981 126.792C99.6285 126.792 95.4472 126.067 91.4365 124.616C87.5112 123.165 84.0125 121.075 80.9405 118.344C77.8685 115.528 75.4365 112.115 73.6445 108.104C71.8525 104.008 70.9565 99.3147 70.9565 94.024V92.488C70.9565 87.2827 71.8525 82.6747 73.6445 78.664C75.4365 74.568 77.8685 71.112 80.9405 68.296C84.0125 65.48 87.5112 63.3467 91.4365 61.896C95.4472 60.4453 99.6285 59.72 103.981 59.72C108.333 59.72 112.471 60.4453 116.397 61.896C120.407 63.3467 123.949 65.48 127.021 68.296C130.093 71.112 132.525 74.568 134.317 78.664C136.109 82.6747 137.005 87.2827 137.005 92.488V94.024ZM103.981 111.432C106.285 111.432 108.461 111.048 110.509 110.28C112.557 109.512 114.349 108.403 115.885 106.952C117.421 105.501 118.615 103.752 119.469 101.704C120.407 99.5707 120.877 97.1813 120.877 94.536V91.976C120.877 89.3307 120.407 86.984 119.469 84.936C118.615 82.8027 117.421 81.0107 115.885 79.56C114.349 78.1093 112.557 77 110.509 76.232C108.461 75.464 106.285 75.08 103.981 75.08C101.677 75.08 99.5005 75.464 97.4525 76.232C95.4045 77 93.6125 78.1093 92.0765 79.56C90.5405 81.0107 89.3032 82.8027 88.3645 84.936C87.5112 86.984 87.0845 89.3307 87.0845 91.976V94.536C87.0845 97.1813 87.5112 99.5707 88.3645 101.704C89.3032 103.752 90.5405 105.501 92.0765 106.952C93.6125 108.403 95.4045 109.512 97.4525 110.28C99.5005 111.048 101.677 111.432 103.981 111.432Z" fill="#34D399"/>
</g>
<defs>
<clipPath id="clip0_2004_751">
<rect width="192" height="192" fill="white"/>
</clipPath>
</defs>
</svg>
