<svg width="130" height="36" viewBox="0 0 130 36" fill="none" xmlns="http://www.w3.org/2000/svg">
<path opacity="0.1" d="M87.8475 13.4913L87.3547 13.2097C86.3054 12.6102 85 13.3677 85 14.5761V25.424C85 26.6323 86.3054 27.3898 87.3547 26.7904L87.8475 26.5087L96.3902 21.6272C97.6492 20.9078 97.6492 19.0922 96.3902 18.3728L87.8475 13.4913Z" fill="#6C22A6"/>
<path d="M87.8475 13.4913L87.3547 13.2097C86.3054 12.6102 85 13.3677 85 14.5761V25.424C85 26.6323 86.3054 27.3898 87.3547 26.7904L87.8475 26.5087L96.3902 21.6272C97.6492 20.9078 97.6492 19.0922 96.3902 18.3728L87.8475 13.4913Z" fill="#6C22A6" stroke="#6C22A6" stroke-width="2.66667" stroke-linecap="round" stroke-linejoin="round"/>
<path d="M44.2308 24H42.1188V20.64C42.1188 20.384 42.0495 20.176 41.9108 20.016C41.7828 19.856 41.5642 19.776 41.2548 19.776H38.8228V24H36.7108V12.8H40.9988C41.5748 12.8 42.0815 12.88 42.5188 13.04C42.9562 13.2 43.3188 13.424 43.6068 13.712C43.9055 13.9893 44.1295 14.3147 44.2788 14.688C44.4388 15.0613 44.5188 15.4613 44.5188 15.888V16.272C44.5188 16.7307 44.3962 17.1627 44.1508 17.568C43.9055 17.9627 43.5268 18.2667 43.0148 18.48V18.768C43.3882 18.8107 43.6815 18.9547 43.8948 19.2C44.1188 19.4453 44.2308 19.7547 44.2308 20.128V24ZM38.8228 17.76H40.8388C41.3508 17.76 41.7402 17.6427 42.0068 17.408C42.2735 17.1627 42.4068 16.8213 42.4068 16.384V16.192C42.4068 15.8187 42.2735 15.4987 42.0068 15.232C41.7402 14.9547 41.3508 14.816 40.8388 14.816H38.8228V17.76ZM48.3637 20.688C48.3744 20.9227 48.4277 21.1413 48.5237 21.344C48.6304 21.536 48.7691 21.7067 48.9397 21.856C49.1211 21.9947 49.3237 22.1067 49.5477 22.192C49.7824 22.2667 50.0277 22.304 50.2837 22.304C50.7851 22.304 51.1691 22.2187 51.4357 22.048C51.7024 21.8667 51.8944 21.6533 52.0117 21.408L53.7397 22.368C53.6437 22.5707 53.5104 22.784 53.3397 23.008C53.1691 23.2213 52.9451 23.4187 52.6677 23.6C52.4011 23.7813 52.0704 23.9307 51.6757 24.048C51.2917 24.1653 50.8384 24.224 50.3157 24.224C49.7184 24.224 49.1744 24.128 48.6837 23.936C48.1931 23.744 47.7664 23.4667 47.4037 23.104C47.0517 22.7413 46.7744 22.2987 46.5717 21.776C46.3797 21.2533 46.2837 20.6613 46.2837 20V19.904C46.2837 19.296 46.3851 18.7413 46.5877 18.24C46.8011 17.7387 47.0891 17.312 47.4517 16.96C47.8144 16.608 48.2357 16.336 48.7157 16.144C49.2064 15.9413 49.7291 15.84 50.2837 15.84C50.9664 15.84 51.5531 15.9627 52.0437 16.208C52.5344 16.4427 52.9397 16.7467 53.2597 17.12C53.5797 17.4827 53.8144 17.888 53.9637 18.336C54.1131 18.7733 54.1877 19.2 54.1877 19.616V20.688H48.3637ZM50.2677 17.664C49.7557 17.664 49.3397 17.7973 49.0197 18.064C48.6997 18.32 48.4917 18.6187 48.3957 18.96H52.1397C52.0757 18.5867 51.8731 18.2773 51.5317 18.032C51.2011 17.7867 50.7797 17.664 50.2677 17.664ZM58.1606 20.688C58.1713 20.9227 58.2246 21.1413 58.3206 21.344C58.4273 21.536 58.5659 21.7067 58.7366 21.856C58.9179 21.9947 59.1206 22.1067 59.3446 22.192C59.5793 22.2667 59.8246 22.304 60.0806 22.304C60.5819 22.304 60.9659 22.2187 61.2326 22.048C61.4993 21.8667 61.6913 21.6533 61.8086 21.408L63.5366 22.368C63.4406 22.5707 63.3073 22.784 63.1366 23.008C62.9659 23.2213 62.7419 23.4187 62.4646 23.6C62.1979 23.7813 61.8673 23.9307 61.4726 24.048C61.0886 24.1653 60.6353 24.224 60.1126 24.224C59.5153 24.224 58.9713 24.128 58.4806 23.936C57.9899 23.744 57.5633 23.4667 57.2006 23.104C56.8486 22.7413 56.5713 22.2987 56.3686 21.776C56.1766 21.2533 56.0806 20.6613 56.0806 20V19.904C56.0806 19.296 56.1819 18.7413 56.3846 18.24C56.5979 17.7387 56.8859 17.312 57.2486 16.96C57.6113 16.608 58.0326 16.336 58.5126 16.144C59.0033 15.9413 59.5259 15.84 60.0806 15.84C60.7633 15.84 61.3499 15.9627 61.8406 16.208C62.3313 16.4427 62.7366 16.7467 63.0566 17.12C63.3766 17.4827 63.6113 17.888 63.7606 18.336C63.9099 18.7733 63.9846 19.2 63.9846 19.616V20.688H58.1606ZM60.0646 17.664C59.5526 17.664 59.1366 17.7973 58.8166 18.064C58.4966 18.32 58.2886 18.6187 58.1926 18.96H61.9366C61.8726 18.5867 61.6699 18.2773 61.3286 18.032C60.9979 17.7867 60.5766 17.664 60.0646 17.664ZM66.1335 22.08H68.9175V14.72H66.2295V12.8H70.9335V22.08H73.5255V24H66.1335V22.08ZM76.1223 22.08H78.8103V17.984H76.3143V16.064H80.8263V22.08H83.1303V24H76.1223V22.08ZM81.3223 13.712C81.3223 13.9253 81.2797 14.128 81.1943 14.32C81.1197 14.5013 81.013 14.6613 80.8743 14.8C80.7357 14.928 80.5703 15.0347 80.3783 15.12C80.197 15.1947 80.005 15.232 79.8023 15.232C79.589 15.232 79.3917 15.1947 79.2103 15.12C79.029 15.0347 78.869 14.928 78.7303 14.8C78.5917 14.6613 78.4797 14.5013 78.3943 14.32C78.3197 14.128 78.2823 13.9253 78.2823 13.712C78.2823 13.4987 78.3197 13.3013 78.3943 13.12C78.4797 12.928 78.5917 12.768 78.7303 12.64C78.869 12.5013 79.029 12.3947 79.2103 12.32C79.3917 12.2347 79.589 12.192 79.8023 12.192C80.005 12.192 80.197 12.2347 80.3783 12.32C80.5703 12.3947 80.7357 12.5013 80.8743 12.64C81.013 12.768 81.1197 12.928 81.1943 13.12C81.2797 13.3013 81.3223 13.4987 81.3223 13.712Z" fill="white"/>
<path d="M44.2308 24H42.1188V20.64C42.1188 20.384 42.0495 20.176 41.9108 20.016C41.7828 19.856 41.5642 19.776 41.2548 19.776H38.8228V24H36.7108V12.8H40.9988C41.5748 12.8 42.0815 12.88 42.5188 13.04C42.9562 13.2 43.3188 13.424 43.6068 13.712C43.9055 13.9893 44.1295 14.3147 44.2788 14.688C44.4388 15.0613 44.5188 15.4613 44.5188 15.888V16.272C44.5188 16.7307 44.3962 17.1627 44.1508 17.568C43.9055 17.9627 43.5268 18.2667 43.0148 18.48V18.768C43.3882 18.8107 43.6815 18.9547 43.8948 19.2C44.1188 19.4453 44.2308 19.7547 44.2308 20.128V24ZM38.8228 17.76H40.8388C41.3508 17.76 41.7402 17.6427 42.0068 17.408C42.2735 17.1627 42.4068 16.8213 42.4068 16.384V16.192C42.4068 15.8187 42.2735 15.4987 42.0068 15.232C41.7402 14.9547 41.3508 14.816 40.8388 14.816H38.8228V17.76ZM48.3637 20.688C48.3744 20.9227 48.4277 21.1413 48.5237 21.344C48.6304 21.536 48.7691 21.7067 48.9397 21.856C49.1211 21.9947 49.3237 22.1067 49.5477 22.192C49.7824 22.2667 50.0277 22.304 50.2837 22.304C50.7851 22.304 51.1691 22.2187 51.4357 22.048C51.7024 21.8667 51.8944 21.6533 52.0117 21.408L53.7397 22.368C53.6437 22.5707 53.5104 22.784 53.3397 23.008C53.1691 23.2213 52.9451 23.4187 52.6677 23.6C52.4011 23.7813 52.0704 23.9307 51.6757 24.048C51.2917 24.1653 50.8384 24.224 50.3157 24.224C49.7184 24.224 49.1744 24.128 48.6837 23.936C48.1931 23.744 47.7664 23.4667 47.4037 23.104C47.0517 22.7413 46.7744 22.2987 46.5717 21.776C46.3797 21.2533 46.2837 20.6613 46.2837 20V19.904C46.2837 19.296 46.3851 18.7413 46.5877 18.24C46.8011 17.7387 47.0891 17.312 47.4517 16.96C47.8144 16.608 48.2357 16.336 48.7157 16.144C49.2064 15.9413 49.7291 15.84 50.2837 15.84C50.9664 15.84 51.5531 15.9627 52.0437 16.208C52.5344 16.4427 52.9397 16.7467 53.2597 17.12C53.5797 17.4827 53.8144 17.888 53.9637 18.336C54.1131 18.7733 54.1877 19.2 54.1877 19.616V20.688H48.3637ZM50.2677 17.664C49.7557 17.664 49.3397 17.7973 49.0197 18.064C48.6997 18.32 48.4917 18.6187 48.3957 18.96H52.1397C52.0757 18.5867 51.8731 18.2773 51.5317 18.032C51.2011 17.7867 50.7797 17.664 50.2677 17.664ZM58.1606 20.688C58.1713 20.9227 58.2246 21.1413 58.3206 21.344C58.4273 21.536 58.5659 21.7067 58.7366 21.856C58.9179 21.9947 59.1206 22.1067 59.3446 22.192C59.5793 22.2667 59.8246 22.304 60.0806 22.304C60.5819 22.304 60.9659 22.2187 61.2326 22.048C61.4993 21.8667 61.6913 21.6533 61.8086 21.408L63.5366 22.368C63.4406 22.5707 63.3073 22.784 63.1366 23.008C62.9659 23.2213 62.7419 23.4187 62.4646 23.6C62.1979 23.7813 61.8673 23.9307 61.4726 24.048C61.0886 24.1653 60.6353 24.224 60.1126 24.224C59.5153 24.224 58.9713 24.128 58.4806 23.936C57.9899 23.744 57.5633 23.4667 57.2006 23.104C56.8486 22.7413 56.5713 22.2987 56.3686 21.776C56.1766 21.2533 56.0806 20.6613 56.0806 20V19.904C56.0806 19.296 56.1819 18.7413 56.3846 18.24C56.5979 17.7387 56.8859 17.312 57.2486 16.96C57.6113 16.608 58.0326 16.336 58.5126 16.144C59.0033 15.9413 59.5259 15.84 60.0806 15.84C60.7633 15.84 61.3499 15.9627 61.8406 16.208C62.3313 16.4427 62.7366 16.7467 63.0566 17.12C63.3766 17.4827 63.6113 17.888 63.7606 18.336C63.9099 18.7733 63.9846 19.2 63.9846 19.616V20.688H58.1606ZM60.0646 17.664C59.5526 17.664 59.1366 17.7973 58.8166 18.064C58.4966 18.32 58.2886 18.6187 58.1926 18.96H61.9366C61.8726 18.5867 61.6699 18.2773 61.3286 18.032C60.9979 17.7867 60.5766 17.664 60.0646 17.664ZM66.1335 22.08H68.9175V14.72H66.2295V12.8H70.9335V22.08H73.5255V24H66.1335V22.08ZM76.1223 22.08H78.8103V17.984H76.3143V16.064H80.8263V22.08H83.1303V24H76.1223V22.08ZM81.3223 13.712C81.3223 13.9253 81.2797 14.128 81.1943 14.32C81.1197 14.5013 81.013 14.6613 80.8743 14.8C80.7357 14.928 80.5703 15.0347 80.3783 15.12C80.197 15.1947 80.005 15.232 79.8023 15.232C79.589 15.232 79.3917 15.1947 79.2103 15.12C79.029 15.0347 78.869 14.928 78.7303 14.8C78.5917 14.6613 78.4797 14.5013 78.3943 14.32C78.3197 14.128 78.2823 13.9253 78.2823 13.712C78.2823 13.4987 78.3197 13.3013 78.3943 13.12C78.4797 12.928 78.5917 12.768 78.7303 12.64C78.869 12.5013 79.029 12.3947 79.2103 12.32C79.3917 12.2347 79.589 12.192 79.8023 12.192C80.005 12.192 80.197 12.2347 80.3783 12.32C80.5703 12.3947 80.7357 12.5013 80.8743 12.64C81.013 12.768 81.1197 12.928 81.1943 13.12C81.2797 13.3013 81.3223 13.4987 81.3223 13.712Z" fill="#D1D5DB"/>
<path d="M93.5512 20.128C93.5512 20.7893 93.4392 21.376 93.2152 21.888C92.9912 22.3893 92.6872 22.816 92.3032 23.168C91.9192 23.5093 91.4766 23.7707 90.9752 23.952C90.4846 24.1333 89.9672 24.224 89.4232 24.224C88.8792 24.224 88.3566 24.1333 87.8552 23.952C87.3646 23.7707 86.9272 23.5093 86.5432 23.168C86.1592 22.816 85.8552 22.3893 85.6312 21.888C85.4072 21.376 85.2952 20.7893 85.2952 20.128V19.936C85.2952 19.2853 85.4072 18.7093 85.6312 18.208C85.8552 17.696 86.1592 17.264 86.5432 16.912C86.9272 16.56 87.3646 16.2933 87.8552 16.112C88.3566 15.9307 88.8792 15.84 89.4232 15.84C89.9672 15.84 90.4846 15.9307 90.9752 16.112C91.4766 16.2933 91.9192 16.56 92.3032 16.912C92.6872 17.264 92.9912 17.696 93.2152 18.208C93.4392 18.7093 93.5512 19.2853 93.5512 19.936V20.128ZM89.4232 22.304C89.7112 22.304 89.9832 22.256 90.2392 22.16C90.4952 22.064 90.7192 21.9253 90.9112 21.744C91.1032 21.5627 91.2526 21.344 91.3592 21.088C91.4766 20.8213 91.5352 20.5227 91.5352 20.192V19.872C91.5352 19.5413 91.4766 19.248 91.3592 18.992C91.2526 18.7253 91.1032 18.5013 90.9112 18.32C90.7192 18.1387 90.4952 18 90.2392 17.904C89.9832 17.808 89.7112 17.76 89.4232 17.76C89.1352 17.76 88.8632 17.808 88.6072 17.904C88.3512 18 88.1272 18.1387 87.9352 18.32C87.7432 18.5013 87.5886 18.7253 87.4712 18.992C87.3646 19.248 87.3112 19.5413 87.3112 19.872V20.192C87.3112 20.5227 87.3646 20.8213 87.4712 21.088C87.5886 21.344 87.7432 21.5627 87.9352 21.744C88.1272 21.9253 88.3512 22.064 88.6072 22.16C88.8632 22.256 89.1352 22.304 89.4232 22.304Z" fill="white"/>
<path d="M93.5512 20.128C93.5512 20.7893 93.4392 21.376 93.2152 21.888C92.9912 22.3893 92.6872 22.816 92.3032 23.168C91.9192 23.5093 91.4766 23.7707 90.9752 23.952C90.4846 24.1333 89.9672 24.224 89.4232 24.224C88.8792 24.224 88.3566 24.1333 87.8552 23.952C87.3646 23.7707 86.9272 23.5093 86.5432 23.168C86.1592 22.816 85.8552 22.3893 85.6312 21.888C85.4072 21.376 85.2952 20.7893 85.2952 20.128V19.936C85.2952 19.2853 85.4072 18.7093 85.6312 18.208C85.8552 17.696 86.1592 17.264 86.5432 16.912C86.9272 16.56 87.3646 16.2933 87.8552 16.112C88.3566 15.9307 88.8792 15.84 89.4232 15.84C89.9672 15.84 90.4846 15.9307 90.9752 16.112C91.4766 16.2933 91.9192 16.56 92.3032 16.912C92.6872 17.264 92.9912 17.696 93.2152 18.208C93.4392 18.7093 93.5512 19.2853 93.5512 19.936V20.128ZM89.4232 22.304C89.7112 22.304 89.9832 22.256 90.2392 22.16C90.4952 22.064 90.7192 21.9253 90.9112 21.744C91.1032 21.5627 91.2526 21.344 91.3592 21.088C91.4766 20.8213 91.5352 20.5227 91.5352 20.192V19.872C91.5352 19.5413 91.4766 19.248 91.3592 18.992C91.2526 18.7253 91.1032 18.5013 90.9112 18.32C90.7192 18.1387 90.4952 18 90.2392 17.904C89.9832 17.808 89.7112 17.76 89.4232 17.76C89.1352 17.76 88.8632 17.808 88.6072 17.904C88.3512 18 88.1272 18.1387 87.9352 18.32C87.7432 18.5013 87.5886 18.7253 87.4712 18.992C87.3646 19.248 87.3112 19.5413 87.3112 19.872V20.192C87.3112 20.5227 87.3646 20.8213 87.4712 21.088C87.5886 21.344 87.7432 21.5627 87.9352 21.744C88.1272 21.9253 88.3512 22.064 88.6072 22.16C88.8632 22.256 89.1352 22.304 89.4232 22.304Z" fill="#34D399"/>
</svg>
